<svg version="1" xmlns="http://www.w3.org/2000/svg" width="1389.333" height="1389.333" viewBox="0 0 1042.000000 1042.000000"><path d="M418 152.9c-14 4.2-22.5 12.5-28.2 27.7l-2.3 5.9-.3 129.7c-.1 71.4-.6 129.8-1.1 129.8-.4 0-3.9-4.8-7.7-10.7-17.5-27.3-41-48.5-68.9-62.1-3.8-1.9-8.1-4-9.5-4.7-7.4-3.7-33.4-11.3-44.5-12.9-2.3-.4-5-.8-6-1-8.9-1.7-37.9-2.3-50-1.1-27.9 2.9-52.2 9.7-74.9 21.2-8 4-19.9 11.3-20.4 12.5-.2.4-.8.8-1.4.8-2 0-18.4 13.6-28.3 23.5-41.8 41.8-66.6 101.8-73.2 177-1.5 17-.8 66.7 1.2 79 .2 1.6.7 5 1 7.5 3 25.4 11.1 56.5 21.1 80.6 19.6 47.5 51.5 85.1 91.9 108.4 20.5 11.8 47.8 21.1 71.5 24.5 18.3 2.6 59.3 2.6 67.2 0 .7-.2 3.1-.6 5.3-.9 20.5-2.8 49.2-14.5 68.2-27.9 10.4-7.4 26.8-23.3 34.8-33.7 6.1-8 16.9-25.7 20-32.8 1-2.3 2.2-4.2 2.7-4.2.4 0 .9 14.3.9 31.7.1 35.5.1 34.9 2.4 41.7 6.1 17.9 23.1 29 42.9 28.1 11.1-.5 11.5-.6 20.3-4.7 8.2-3.8 16.8-14.6 20.1-25.2.4-1.1.8-152.9.9-337.1l.2-335-2.5-7.3c-2.7-7.8-4.4-11.1-8.5-15.9-3.8-4.5-11.7-9.8-17.4-11.8-6.9-2.5-20.5-2.8-27.5-.6zM258 428.5c14.7 2.9 21.9 4.8 29.5 8 33.2 13.9 57.5 37.1 74.4 71.2 8.9 17.9 14.3 33.9 18.5 54.8 4.1 20.1 5 30.2 5.1 56.5 0 18.6-.7 33.4-1.9 40-.3 1.4-.9 5.6-1.5 9.5-4.6 29.7-15.3 58.9-29.8 81-7.7 11.6-8.9 13.1-20.3 24.5-19.4 19.4-38.5 29.7-67.4 36.2-12.8 2.9-38 3.3-53 .8-49.9-8.4-86.4-39-108-90.7-7.7-18.5-14.1-46.1-16.3-70.3-1.6-16.8-.9-57.6 1.2-70.1.2-1.3.6-4.5 1-7.1.3-2.6.7-5.3 1-6 .2-.7.7-3.1 1-5.2 1.3-9.3 6.7-28 11.3-39.6 15.1-37.9 38.8-65.2 69.7-80.4 10.4-5.2 24.1-10.1 30.9-11.2 1.7-.2 6.5-1 10.6-1.8 7.7-1.3 37.2-1.4 44-.1zM987.5 152.4c-17.6 4.3-30.1 19.7-32.1 39.6-.1 1.4-.2 59.1-.3 128.2-.1 73.5-.5 125.8-1 125.8s-3-3.4-5.6-7.6c-14.2-22.8-31.7-40.9-52.5-54.4-12.2-7.9-14.1-9-28.2-15.4-6.3-2.9-25.5-9.3-30.2-10.2-1.7-.3-4.9-.9-7.1-1.4-3.9-.9-7.7-1.6-13.2-2.4-17.1-2.7-45-2.3-64.5.9-22.3 3.6-38.2 8.6-57.3 18-54.9 27-93.2 75.9-113.9 145.5-.9 3-1.8 6.4-2.1 7.5-.2 1.1-1.1 4.8-1.9 8.2-.9 3.4-1.8 7.7-2.1 9.5-.3 1.8-.8 4-1 4.8-.2.8-.7 3.3-1 5.5-.3 2.3-.8 5.2-1 6.5-.3 1.4-.8 4.8-1 7.6-.3 2.8-.7 5.9-.9 7-2.7 14.1-2.8 74.8-.1 91.9.3 1.6.7 4.8.9 7 1.5 13.9 6.5 37.7 11.2 53.2 21 69.3 63.5 120.7 120.4 145.5 9.2 4 22.8 8.9 28.6 10.3 24 5.7 34.6 7 58.4 7 15.8 0 29.8-.8 33.2-2 .7-.2 3.2-.6 5.5-.9 6.1-.8 18.9-4.2 29-7.7 8-2.8 31.3-14.2 34.5-16.8.7-.6 4.2-3.2 7.8-5.8 7.1-5.3 23.3-21 29.6-28.8 6.4-7.9 15.6-22.5 19.9-31.4 2.1-4.4 4.3-8.1 4.7-8.1.4 0 .8 13.8.9 30.7.1 34.5.2 36.1 2.5 42.8 9.7 28.8 50.3 38.2 72.1 16.7 5.2-5.2 10.1-13.9 11.2-19.9.3-2.1.6-154.3.6-338.3 0-326.6 0-334.6-1.9-340-2.7-7.8-5.5-12.4-10.8-17.8-10.1-10.3-26.2-14.5-41.3-10.8zM833 429.5c12.4 2.4 26.2 7.1 35.5 12 43.2 22.5 71.8 65.8 82.9 125.1 1.5 7.8 1.9 11.2 3.6 27.4.8 7.7.6 52.9-.3 56.5-.3 1.1-.8 4.7-1.1 8-3.1 28.7-13 59.8-26.8 84-8.8 15.4-27.3 36.1-40.8 45.6-14.2 10-35.4 19.3-49.7 21.8-3.2.5-7.4 1.3-9.3 1.7-7.3 1.5-38.2.9-48-.9-55.3-10.2-95.2-50-112.9-112.7-2.6-9.2-3.5-13.3-5.6-24-.3-1.4-.8-4.5-1.1-7-.3-2.5-.8-5.4-1-6.5-1.8-9.6-2.6-55-1.2-69.5 4.2-42.4 15.2-76.2 34-104.2 7.2-10.6 24.2-28.2 33.8-35 18.4-12.9 39.9-21.1 62-23.5 3-.3 5.7-.7 5.9-1 1.2-1 32.5.7 40.1 2.2z"/></svg>